<?xml version="1.0" encoding="utf-8"?>
<!-- Generator: Adobe Illustrator 16.0.0, SVG Export Plug-In . SVG Version: 6.00 Build 0)  -->
<!DOCTYPE svg PUBLIC "-//W3C//DTD SVG 1.1//EN" "http://www.w3.org/Graphics/SVG/1.1/DTD/svg11.dtd">
<svg version="1.1" id="Capa_1" xmlns="http://www.w3.org/2000/svg" xmlns:xlink="http://www.w3.org/1999/xlink" x="0px" y="0px"
	 width="595.28px" height="841.89px" viewBox="0 0 595.28 841.89" enable-background="new 0 0 595.28 841.89" xml:space="preserve">
<g>
	<g>
		<path fill="#FFFFFF" d="M297.638,281.095c-29.833,0-54.018,24.184-54.018,54.018c0,29.836,24.185,54.02,54.018,54.02
			c29.835,0,54.018-24.184,54.018-54.02C351.655,305.279,327.473,281.095,297.638,281.095 M297.638,384.368
			c-27.201,0-49.249-22.051-49.249-49.254c0-27.2,22.047-49.251,49.249-49.251c27.202,0,49.254,22.052,49.254,49.251
			C346.892,362.316,324.84,384.368,297.638,384.368"/>
		<path fill="#FFFFFF" d="M317.086,374.645c-5.597-1.912-12.091-2.972-19.567-2.972c-7.362,0-13.77,1.029-19.311,2.891
			c5.895,2.888,12.516,4.51,19.519,4.51C304.667,379.074,311.23,377.477,317.086,374.645"/>
		<path fill="#FFFFFF" d="M273.53,371.901c7.251-2.606,15.391-4.073,23.988-4.073c8.702,0,16.933,1.506,24.251,4.172
			c1.969-1.268,3.834-2.684,5.571-4.24c-8.873-3.566-19.027-5.59-29.822-5.59c-10.683,0-20.729,1.987-29.533,5.481
			C269.714,369.21,271.568,370.629,273.53,371.901"/>
		<path fill="#FFFFFF" d="M297.519,339.554c-14.378,0-29.27,3.6-41.784,9.644c0.723,2.081,1.593,4.09,2.603,6.019
			c11.64-5.71,25.778-9.087,39.182-9.087c13.531,0,27.808,3.447,39.509,9.254c1.02-1.923,1.9-3.93,2.632-6.01
			C327.069,343.224,312.034,339.554,297.519,339.554"/>
		<path fill="#FFFFFF" d="M283.942,354.743c0-1.36,2.468-2.555,6.189-3.24c-10.454,0.838-20.599,3.51-29.524,7.567
			c1.188,1.798,2.503,3.506,3.93,5.11c7.386-3.308,15.709-5.564,24.276-6.469C285.839,357.003,283.942,355.937,283.942,354.743"/>
		<path fill="#FFFFFF" d="M305.263,351.601c3.439,0.7,5.695,1.845,5.695,3.142c0,1.22-1.978,2.304-5.06,3.009
			c8.749,0.963,17.215,3.341,24.693,6.795c1.45-1.59,2.787-3.289,3.996-5.078C325.758,355.33,315.683,352.56,305.263,351.601"/>
		<path fill="#FFFFFF" d="M253.432,338.157c0.178,2.273,0.527,4.496,1.034,6.659c13.028-6.274,28.944-10.03,43.053-10.03
			c14.196,0,30.313,3.698,43.489,9.939c0.502-2.154,0.844-4.366,1.019-6.627c-13.718-6.179-29.832-9.851-44.508-9.851
			C282.931,328.248,267.002,331.957,253.432,338.157"/>
		<path fill="#FFFFFF" d="M299.107,354.136c0,0-0.516,0.781-1.558,0.781c-1.043,0-1.47-0.781-1.47-0.781v-63.898h0.149
			l16.652,16.941l-13.774-0.04V354.136z"/>
	</g>
	<g>
		<path fill="#FFFFFF" d="M195.295,423.115h-0.113l-6.22-9.315V428h-3.464v-19.88h3.72l6.05,9.401l6.048-9.401h3.72V428h-3.464
			v-14.257L195.295,423.115z"/>
		<path fill="#FFFFFF" d="M218.727,413.005h3.465V428h-3.465v-2.352c-0.492,0.725-1.105,1.352-1.841,1.877
			c-0.737,0.525-1.681,0.787-2.832,0.787c-1.699,0-3.012-0.521-3.937-1.561c-0.926-1.041-1.388-2.443-1.388-4.205v-9.542h3.465v8.5
			c0,1.173,0.277,2.073,0.831,2.706s1.337,0.951,2.351,0.951c0.994,0,1.802-0.328,2.421-0.979c0.62-0.652,0.93-1.564,0.93-2.735
			V413.005z"/>
		<path fill="#FFFFFF" d="M229.121,428h-3.465v-14.995h3.465v2.353c0.245-0.363,0.514-0.703,0.807-1.018
			c0.292-0.314,0.633-0.597,1.019-0.845c0.387-0.248,0.813-0.443,1.274-0.587c0.462-0.143,0.986-0.214,1.572-0.214
			c1.699,0,3.011,0.521,3.937,1.562c0.924,1.041,1.388,2.442,1.388,4.203V428h-3.465v-8.499c0-1.172-0.277-2.075-0.83-2.708
			c-0.554-0.633-1.338-0.949-2.352-0.949c-0.995,0-1.801,0.327-2.421,0.979s-0.929,1.563-0.929,2.734V428z"/>
		<path fill="#FFFFFF" d="M242.468,410.705v-3.268h3.722v3.268H242.468z M242.61,428v-14.995h3.465V428H242.61z"/>
		<path fill="#FFFFFF" d="M260.247,427.559c-0.947,0.523-2.149,0.783-3.607,0.783c-1.117,0-2.149-0.204-3.097-0.61
			c-0.947-0.408-1.769-0.966-2.466-1.675c-0.696-0.712-1.24-1.535-1.632-2.473c-0.391-0.936-0.587-1.946-0.587-3.025
			c0-1.079,0.196-2.092,0.587-3.038c0.392-0.946,0.936-1.781,1.632-2.5c0.697-0.72,1.524-1.287,2.48-1.705
			c0.957-0.416,1.994-0.624,3.111-0.624c1.419,0,2.598,0.236,3.536,0.709c0.938,0.475,1.755,1.1,2.457,1.875l-2.13,2.3
			c-0.53-0.547-1.093-0.997-1.69-1.348s-1.331-0.526-2.201-0.526c-0.625,0-1.203,0.127-1.732,0.383
			c-0.531,0.256-0.985,0.602-1.363,1.037c-0.379,0.435-0.678,0.941-0.896,1.519c-0.217,0.578-0.326,1.199-0.326,1.861
			c0,0.681,0.109,1.317,0.326,1.903c0.218,0.588,0.527,1.098,0.924,1.533c0.397,0.436,0.87,0.78,1.42,1.037
			c0.549,0.255,1.154,0.382,1.817,0.382c0.815,0,1.529-0.173,2.145-0.525c0.615-0.349,1.198-0.799,1.746-1.348l2.074,2.044
			C262.036,426.363,261.194,427.039,260.247,427.559z"/>
		<path fill="#FFFFFF" d="M265.103,410.705v-3.268h3.721v3.268H265.103z M265.245,428v-14.995h3.466V428H265.245z"/>
		<path fill="#FFFFFF" d="M287.241,423.826c-0.388,0.965-0.909,1.785-1.562,2.457c-0.653,0.673-1.401,1.178-2.243,1.518
			c-0.843,0.342-1.71,0.512-2.601,0.512c-1.23,0-2.252-0.265-3.066-0.795c-0.814-0.529-1.486-1.145-2.017-1.846l0.029,6.873h-3.466
			v-19.54h3.466v2.499c0.547-0.794,1.228-1.463,2.039-2.002c0.813-0.538,1.823-0.808,3.032-0.808c0.888,0,1.747,0.169,2.578,0.51
			c0.831,0.341,1.572,0.849,2.225,1.52c0.651,0.673,1.176,1.49,1.571,2.457c0.397,0.966,0.596,2.073,0.596,3.323
			S287.629,422.86,287.241,423.826z M284.018,418.501c-0.228-0.597-0.535-1.103-0.923-1.52c-0.389-0.417-0.843-0.738-1.363-0.966
			c-0.521-0.227-1.074-0.341-1.661-0.341s-1.146,0.115-1.676,0.341c-0.53,0.228-0.994,0.554-1.392,0.98s-0.715,0.932-0.952,1.52
			c-0.236,0.586-0.354,1.25-0.354,1.988s0.118,1.4,0.354,1.988c0.237,0.588,0.555,1.093,0.952,1.52
			c0.397,0.425,0.861,0.753,1.392,0.979c0.529,0.228,1.089,0.341,1.676,0.341s1.141-0.113,1.661-0.341
			c0.521-0.226,0.975-0.549,1.363-0.964c0.388-0.418,0.695-0.925,0.923-1.521c0.229-0.597,0.341-1.264,0.341-2.002
			S284.246,419.096,284.018,418.501z"/>
		<path fill="#FFFFFF" d="M299.667,428v-1.846c-0.512,0.605-1.165,1.118-1.96,1.533c-0.795,0.418-1.762,0.625-2.897,0.625
			c-0.719,0-1.401-0.1-2.045-0.297c-0.644-0.199-1.206-0.494-1.69-0.881c-0.481-0.389-0.87-0.871-1.163-1.449
			c-0.294-0.576-0.44-1.245-0.44-2.002v-0.057c0-0.814,0.151-1.525,0.455-2.13c0.302-0.606,0.724-1.107,1.263-1.506
			c0.54-0.397,1.184-0.695,1.932-0.895c0.748-0.198,1.558-0.297,2.429-0.297c0.909,0,1.68,0.057,2.313,0.17
			c0.635,0.113,1.245,0.265,1.833,0.455v-0.369c0-1.041-0.317-1.836-0.952-2.387c-0.635-0.549-1.548-0.824-2.74-0.824
			c-0.852,0-1.61,0.085-2.272,0.256c-0.663,0.171-1.335,0.398-2.016,0.683l-0.938-2.756c0.833-0.378,1.685-0.681,2.556-0.909
			c0.87-0.227,1.922-0.34,3.152-0.34c2.234,0,3.891,0.554,4.971,1.661c1.079,1.107,1.619,2.664,1.619,4.671V428H299.667z
			 M299.751,421.638c-0.436-0.17-0.951-0.312-1.547-0.426c-0.598-0.113-1.227-0.169-1.889-0.169c-1.08,0-1.923,0.208-2.527,0.625
			c-0.606,0.417-0.909,1.012-0.909,1.79v0.057c0,0.719,0.278,1.268,0.838,1.648c0.558,0.377,1.244,0.565,2.059,0.565
			c0.568,0,1.093-0.074,1.577-0.226c0.482-0.152,0.903-0.365,1.263-0.64c0.36-0.274,0.64-0.604,0.839-0.994
			c0.198-0.388,0.297-0.819,0.297-1.292V421.638z"/>
		<path fill="#FFFFFF" d="M306.511,428v-20.731h3.465V428H306.511z"/>
		<path fill="#FFFFFF" d="M313.639,410.705v-3.268h3.721v3.268H313.639z M313.781,428v-14.995h3.465V428H313.781z"/>
		<path fill="#FFFFFF" d="M332.129,428v-2.498c-0.549,0.776-1.234,1.438-2.056,1.987c-0.822,0.55-1.837,0.823-3.045,0.823
			c-0.888,0-1.747-0.17-2.579-0.512c-0.83-0.34-1.567-0.845-2.21-1.518c-0.642-0.672-1.161-1.492-1.558-2.457
			c-0.396-0.966-0.595-2.073-0.595-3.323s0.192-2.357,0.58-3.323c0.387-0.966,0.901-1.784,1.545-2.457
			c0.642-0.671,1.384-1.179,2.223-1.52c0.842-0.341,1.706-0.51,2.594-0.51c1.227,0,2.247,0.266,3.06,0.794
			c0.812,0.53,1.492,1.146,2.041,1.847v-8.065h3.464V428H332.129z M331.831,418.515c-0.236-0.587-0.553-1.093-0.948-1.52
			c-0.396-0.426-0.859-0.752-1.387-0.98c-0.529-0.227-1.075-0.341-1.643-0.341c-0.585,0-1.137,0.11-1.656,0.327
			c-0.52,0.219-0.976,0.535-1.373,0.952c-0.396,0.416-0.708,0.923-0.935,1.518c-0.225,0.597-0.339,1.275-0.339,2.032
			c0,0.738,0.114,1.405,0.339,2.002c0.227,0.596,0.539,1.103,0.935,1.521c0.397,0.415,0.854,0.738,1.373,0.964
			c0.52,0.228,1.071,0.341,1.656,0.341c0.567,0,1.113-0.113,1.643-0.341c0.527-0.226,0.99-0.554,1.387-0.979
			c0.396-0.427,0.712-0.932,0.948-1.52s0.354-1.25,0.354-1.988S332.067,419.101,331.831,418.515z"/>
		<path fill="#FFFFFF" d="M348.203,428v-1.846c-0.511,0.605-1.164,1.118-1.96,1.533c-0.795,0.418-1.761,0.625-2.896,0.625
			c-0.72,0-1.401-0.1-2.045-0.297c-0.644-0.199-1.207-0.494-1.69-0.881c-0.482-0.389-0.871-0.871-1.163-1.449
			c-0.294-0.576-0.44-1.245-0.44-2.002v-0.057c0-0.814,0.151-1.525,0.454-2.13c0.304-0.606,0.724-1.107,1.264-1.506
			c0.539-0.397,1.183-0.695,1.932-0.895c0.748-0.198,1.558-0.297,2.428-0.297c0.91,0,1.68,0.057,2.314,0.17
			c0.634,0.113,1.246,0.265,1.832,0.455v-0.369c0-1.041-0.316-1.836-0.951-2.387c-0.635-0.549-1.547-0.824-2.74-0.824
			c-0.853,0-1.61,0.085-2.272,0.256c-0.664,0.171-1.335,0.398-2.017,0.683l-0.938-2.756c0.833-0.378,1.686-0.681,2.558-0.909
			c0.869-0.227,1.92-0.34,3.151-0.34c2.234,0,3.892,0.554,4.969,1.661c1.08,1.107,1.62,2.664,1.62,4.671V428H348.203z
			 M348.289,421.638c-0.437-0.17-0.952-0.312-1.548-0.426c-0.598-0.113-1.227-0.169-1.89-0.169c-1.079,0-1.922,0.208-2.527,0.625
			c-0.605,0.417-0.909,1.012-0.909,1.79v0.057c0,0.719,0.279,1.268,0.838,1.648c0.559,0.377,1.245,0.565,2.06,0.565
			c0.567,0,1.093-0.074,1.575-0.226c0.484-0.152,0.904-0.365,1.265-0.64c0.359-0.274,0.639-0.604,0.838-0.994
			c0.198-0.388,0.299-0.819,0.299-1.292V421.638z"/>
		<path fill="#FFFFFF" d="M366.124,428v-2.498c-0.549,0.776-1.233,1.438-2.055,1.987c-0.821,0.55-1.837,0.823-3.045,0.823
			c-0.889,0-1.747-0.17-2.579-0.512c-0.832-0.34-1.568-0.845-2.21-1.518c-0.643-0.672-1.162-1.492-1.558-2.457
			c-0.397-0.966-0.595-2.073-0.595-3.323s0.192-2.357,0.58-3.323c0.387-0.966,0.902-1.784,1.545-2.457
			c0.642-0.671,1.383-1.179,2.224-1.52c0.841-0.341,1.704-0.51,2.593-0.51c1.227,0,2.247,0.266,3.06,0.794
			c0.812,0.53,1.491,1.146,2.04,1.847v-8.065h3.464V428H366.124z M365.826,418.515c-0.236-0.587-0.552-1.093-0.947-1.52
			c-0.396-0.426-0.859-0.752-1.387-0.98c-0.529-0.227-1.076-0.341-1.643-0.341c-0.585,0-1.137,0.11-1.656,0.327
			c-0.52,0.219-0.977,0.535-1.373,0.952c-0.396,0.416-0.708,0.923-0.935,1.518c-0.226,0.597-0.339,1.275-0.339,2.032
			c0,0.738,0.113,1.405,0.339,2.002c0.227,0.596,0.539,1.103,0.935,1.521c0.396,0.415,0.854,0.738,1.373,0.964
			c0.52,0.228,1.071,0.341,1.656,0.341c0.566,0,1.113-0.113,1.643-0.341c0.527-0.226,0.99-0.554,1.387-0.979
			c0.396-0.427,0.711-0.932,0.947-1.52s0.354-1.25,0.354-1.988S366.063,419.101,365.826,418.515z"/>
		<path fill="#FFFFFF" d="M389.981,428v-2.498c-0.548,0.776-1.232,1.438-2.055,1.987c-0.823,0.55-1.836,0.823-3.046,0.823
			c-0.888,0-1.747-0.17-2.578-0.512c-0.831-0.34-1.568-0.845-2.21-1.518c-0.643-0.672-1.162-1.492-1.559-2.457
			c-0.396-0.966-0.594-2.073-0.594-3.323s0.192-2.357,0.58-3.323c0.387-0.966,0.902-1.784,1.545-2.457
			c0.642-0.671,1.384-1.179,2.224-1.52c0.841-0.341,1.704-0.51,2.592-0.51c1.228,0,2.249,0.266,3.06,0.794
			c0.813,0.53,1.493,1.146,2.041,1.847v-8.065h3.465V428H389.981z M389.684,418.515c-0.235-0.587-0.552-1.093-0.949-1.52
			c-0.396-0.426-0.857-0.752-1.386-0.98c-0.528-0.227-1.075-0.341-1.642-0.341c-0.585,0-1.137,0.11-1.656,0.327
			c-0.52,0.219-0.977,0.535-1.373,0.952c-0.396,0.416-0.708,0.923-0.935,1.518c-0.226,0.597-0.339,1.275-0.339,2.032
			c0,0.738,0.113,1.405,0.339,2.002c0.227,0.596,0.539,1.103,0.935,1.521c0.396,0.415,0.854,0.738,1.373,0.964
			c0.52,0.228,1.071,0.341,1.656,0.341c0.566,0,1.113-0.113,1.642-0.341c0.528-0.226,0.99-0.554,1.386-0.979
			c0.397-0.427,0.714-0.932,0.949-1.52s0.354-1.25,0.354-1.988S389.919,419.101,389.684,418.515z"/>
		<path fill="#FFFFFF" d="M400.972,424.549c0.776,0.654,1.724,0.98,2.841,0.98c0.852,0,1.59-0.152,2.215-0.453
			c0.625-0.304,1.24-0.749,1.847-1.335l2.017,1.788c-0.72,0.854-1.576,1.533-2.57,2.045s-2.183,0.768-3.564,0.768
			c-1.08,0-2.088-0.19-3.025-0.568c-0.938-0.379-1.752-0.909-2.442-1.592c-0.691-0.68-1.235-1.498-1.633-2.456
			c-0.397-0.956-0.597-2.021-0.597-3.195c0-1.079,0.181-2.092,0.54-3.038c0.359-0.947,0.866-1.775,1.52-2.486
			c0.652-0.71,1.425-1.273,2.315-1.69c0.889-0.416,1.874-0.624,2.951-0.624c1.194,0,2.24,0.217,3.141,0.653
			c0.898,0.436,1.646,1.022,2.242,1.76c0.598,0.738,1.047,1.601,1.35,2.585s0.454,2.016,0.454,3.095
			c0,0.152-0.004,0.303-0.014,0.455s-0.024,0.312-0.043,0.482h-11.019C399.703,422.955,400.195,423.896,400.972,424.549z
			 M407.164,419.452c-0.058-0.549-0.181-1.064-0.369-1.548c-0.19-0.482-0.445-0.899-0.768-1.25c-0.322-0.349-0.705-0.628-1.15-0.837
			c-0.445-0.208-0.951-0.313-1.52-0.313c-1.06,0-1.936,0.366-2.627,1.095c-0.691,0.729-1.112,1.68-1.264,2.854H407.164z"/>
		<path fill="#FFFFFF" d="M205.245,434.974h4.904l-10.731,26.001h-3.982l-10.731-26.001h5.015l7.781,19.841L205.245,434.974z"/>
		<path fill="#FFFFFF" d="M213.063,438.331v-4.243h4.832v4.243H213.063z M213.248,460.79v-19.474h4.5v19.474H213.248z"/>
		<path fill="#FFFFFF" d="M223.463,460.79v-26.923h4.5v26.923H223.463z"/>
		<path fill="#FFFFFF" d="M233.678,460.79v-26.923h4.5v26.923H233.678z"/>
		<path fill="#FFFFFF" d="M255.547,460.79v-2.397c-0.665,0.786-1.513,1.451-2.545,1.991c-1.033,0.541-2.287,0.811-3.762,0.811
			c-0.935,0-1.82-0.129-2.655-0.387c-0.836-0.258-1.567-0.64-2.194-1.144c-0.626-0.504-1.131-1.13-1.512-1.882
			c-0.381-0.748-0.571-1.615-0.571-2.599v-0.074c0-1.056,0.196-1.979,0.59-2.765c0.393-0.787,0.941-1.439,1.641-1.955
			c0.701-0.518,1.536-0.904,2.507-1.162c0.971-0.258,2.022-0.387,3.154-0.387c1.179,0,2.181,0.072,3.004,0.222
			c0.824,0.147,1.617,0.345,2.379,0.589v-0.479c0-1.353-0.412-2.385-1.235-3.099c-0.824-0.714-2.01-1.068-3.559-1.068
			c-1.106,0-2.09,0.11-2.95,0.331c-0.861,0.221-1.733,0.516-2.619,0.885l-1.217-3.578c1.081-0.49,2.188-0.884,3.319-1.178
			c1.13-0.297,2.496-0.443,4.093-0.443c2.901,0,5.053,0.719,6.454,2.158c1.401,1.438,2.102,3.459,2.102,6.064v11.545H255.547z
			 M255.658,452.528c-0.566-0.221-1.236-0.406-2.011-0.553c-0.774-0.148-1.592-0.223-2.452-0.223c-1.402,0-2.496,0.271-3.282,0.813
			c-0.787,0.54-1.18,1.315-1.18,2.324v0.072c0,0.936,0.363,1.648,1.088,2.139c0.724,0.493,1.616,0.738,2.673,0.738
			c0.737,0,1.42-0.098,2.046-0.295c0.627-0.197,1.174-0.473,1.642-0.83c0.467-0.355,0.83-0.785,1.088-1.291
			c0.258-0.503,0.388-1.063,0.388-1.677V452.528z"/>
		<path fill="#FFFFFF" d="M299.936,460.79h-4.793l-2.619-6.232h-12.207l-2.654,6.232h-4.647l11.358-26.001h4.204L299.936,460.79z
			 M286.401,440.21l-4.426,10.328h8.889L286.401,440.21z"/>
		<path fill="#FFFFFF" d="M303.771,460.79v-26.923h4.499v26.923H303.771z"/>
		<path fill="#FFFFFF" d="M313.987,460.79v-26.923h4.499v26.923H313.987z"/>
		<path fill="#FFFFFF" d="M329.254,456.308c1.008,0.849,2.237,1.271,3.688,1.271c1.106,0,2.065-0.195,2.877-0.589
			c0.812-0.392,1.609-0.971,2.396-1.733l2.619,2.322c-0.936,1.107-2.047,1.994-3.338,2.657s-2.834,0.995-4.629,0.995
			c-1.401,0-2.71-0.246-3.927-0.738c-1.217-0.491-2.274-1.18-3.172-2.064c-0.898-0.885-1.604-1.949-2.121-3.189
			c-0.516-1.242-0.774-2.623-0.774-4.15c0-1.4,0.233-2.715,0.701-3.944s1.125-2.305,1.974-3.228
			c0.848-0.922,1.849-1.652,3.005-2.194c1.155-0.54,2.435-0.812,3.835-0.812c1.55,0,2.907,0.284,4.075,0.849
			c1.168,0.566,2.14,1.327,2.913,2.286c0.775,0.96,1.358,2.078,1.753,3.355c0.393,1.279,0.59,2.619,0.59,4.02
			c0,0.197-0.007,0.395-0.019,0.592c-0.013,0.197-0.031,0.404-0.056,0.626h-14.309C327.606,454.237,328.245,455.46,329.254,456.308z
			 M337.294,449.688c-0.073-0.713-0.234-1.383-0.479-2.01c-0.246-0.627-0.578-1.167-0.995-1.623
			c-0.419-0.455-0.916-0.817-1.494-1.087c-0.578-0.271-1.235-0.407-1.974-0.407c-1.377,0-2.514,0.475-3.41,1.422
			c-0.897,0.945-1.444,2.182-1.642,3.705H337.294z"/>
		<path fill="#FFFFFF" d="M350.386,460.79h-4.499v-19.474h4.499v3.056c0.318-0.471,0.667-0.91,1.049-1.32
			c0.379-0.41,0.82-0.775,1.323-1.098c0.502-0.322,1.055-0.577,1.655-0.764c0.601-0.186,1.28-0.279,2.041-0.279
			c2.206,0,3.909,0.677,5.111,2.029c1.201,1.352,1.802,3.171,1.802,5.457v12.393h-4.5v-11.039c0-1.521-0.358-2.691-1.078-3.514
			c-0.719-0.822-1.736-1.231-3.053-1.231c-1.292,0-2.34,0.423-3.144,1.269c-0.805,0.847-1.207,2.029-1.207,3.55V460.79z"/>
		<path fill="#FFFFFF" d="M383.061,460.79v-3.246c-0.711,1.008-1.601,1.869-2.669,2.58c-1.066,0.714-2.384,1.07-3.954,1.07
			c-1.152,0-2.269-0.22-3.349-0.664c-1.079-0.441-2.036-1.1-2.869-1.973c-0.834-0.873-1.508-1.936-2.023-3.189
			s-0.772-2.691-0.772-4.316c0-1.621,0.251-3.059,0.754-4.314c0.503-1.252,1.172-2.316,2.006-3.189
			c0.834-0.871,1.796-1.53,2.888-1.973c1.091-0.441,2.214-0.664,3.366-0.664c1.594,0,2.919,0.345,3.973,1.033
			c1.056,0.689,1.939,1.487,2.65,2.396v-10.474h4.499v26.923H383.061z M382.674,448.472c-0.306-0.762-0.716-1.42-1.231-1.975
			c-0.514-0.551-1.114-0.977-1.8-1.271s-1.396-0.441-2.132-0.441c-0.76,0-1.478,0.141-2.151,0.424s-1.268,0.694-1.782,1.235
			c-0.515,0.542-0.919,1.198-1.213,1.973c-0.294,0.775-0.441,1.653-0.441,2.636c0,0.961,0.147,1.826,0.441,2.602
			c0.294,0.773,0.698,1.433,1.213,1.973c0.515,0.541,1.108,0.959,1.782,1.254s1.392,0.442,2.151,0.442
			c0.735,0,1.446-0.147,2.132-0.442s1.286-0.719,1.8-1.273c0.516-0.553,0.926-1.209,1.231-1.973c0.308-0.761,0.46-1.621,0.46-2.582
			C383.134,450.095,382.981,449.233,382.674,448.472z"/>
		<path fill="#FFFFFF" d="M398.106,456.308c1.008,0.849,2.236,1.271,3.688,1.271c1.105,0,2.064-0.195,2.877-0.589
			c0.811-0.392,1.608-0.971,2.396-1.733l2.618,2.322c-0.935,1.107-2.046,1.994-3.337,2.657s-2.834,0.995-4.629,0.995
			c-1.4,0-2.71-0.246-3.927-0.738c-1.218-0.491-2.274-1.18-3.173-2.064c-0.897-0.885-1.604-1.949-2.119-3.189
			c-0.517-1.242-0.775-2.623-0.775-4.15c0-1.4,0.233-2.715,0.7-3.944c0.468-1.229,1.125-2.305,1.974-3.228
			c0.849-0.922,1.85-1.652,3.007-2.194c1.154-0.54,2.433-0.812,3.834-0.812c1.549,0,2.907,0.284,4.075,0.849
			c1.167,0.566,2.139,1.327,2.913,2.286c0.775,0.96,1.358,2.078,1.752,3.355c0.394,1.279,0.59,2.619,0.59,4.02
			c0,0.197-0.006,0.395-0.018,0.592c-0.014,0.197-0.032,0.404-0.056,0.626h-14.31C396.459,454.237,397.098,455.46,398.106,456.308z
			 M406.146,449.688c-0.074-0.713-0.233-1.383-0.48-2.01c-0.245-0.627-0.577-1.167-0.994-1.623
			c-0.419-0.455-0.918-0.817-1.494-1.087c-0.579-0.271-1.236-0.407-1.973-0.407c-1.378,0-2.515,0.475-3.411,1.422
			c-0.898,0.945-1.445,2.182-1.642,3.705H406.146z"/>
	</g>
</g>
</svg>
