<svg width="101" height="36" viewBox="0 0 101 36" fill="none" xmlns="http://www.w3.org/2000/svg">
<path d="M20.1209 29.118C20.4 28.8401 20.6215 28.5098 20.7726 28.1461C20.9237 27.7824 21.0015 27.3924 21.0015 26.9985C21.0015 26.6047 20.9237 26.2147 20.7726 25.8509C20.6215 25.4872 20.4 25.1569 20.1209 24.879C19.8431 24.5993 19.5128 24.3772 19.1489 24.2255C18.785 24.0739 18.3947 23.9957 18.0005 23.9954C17.6063 23.9951 17.2159 24.0728 16.8518 24.2239C16.4877 24.375 16.157 24.5967 15.8789 24.876C15.5924 25.1528 15.3638 25.4838 15.2066 25.8498C15.0494 26.2158 14.9666 26.6095 14.9631 27.0078C14.9597 27.4061 15.0356 27.8012 15.1864 28.1699C15.3373 28.5386 15.56 28.8735 15.8417 29.1552C16.1234 29.4369 16.4583 29.6596 16.827 29.8105C17.1957 29.9613 17.5908 30.0372 17.9891 30.0338C18.3874 30.0303 18.7811 29.9475 19.1471 29.7903C19.5131 29.6331 19.8441 29.4045 20.1209 29.118ZM30.7274 17.2725C30.3333 17.2733 29.943 17.196 29.579 17.0451C29.215 16.8942 28.8844 16.6728 28.6064 16.3935C22.7579 10.545 13.2419 10.5465 7.39189 16.3935C6.82917 16.9562 6.06595 17.2724 5.27014 17.2724C4.47433 17.2724 3.71111 16.9562 3.14839 16.3935C2.58567 15.8308 2.26953 15.0676 2.26953 14.2718C2.26953 13.476 2.58567 12.7127 3.14839 12.15C11.3369 3.96302 24.6599 3.96302 32.8469 12.15C33.2667 12.5694 33.5528 13.1039 33.6688 13.6859C33.7849 14.2678 33.7257 14.8712 33.4988 15.4195C33.2719 15.9678 32.8875 16.4366 32.3942 16.7664C31.9009 17.0963 31.3208 17.2724 30.7274 17.2725ZM11.6354 23.6355C11.0421 23.6354 10.4622 23.4594 9.96901 23.1297C9.47578 22.8001 9.09137 22.3316 8.86436 21.7835C8.63734 21.2354 8.57794 20.6323 8.69364 20.0504C8.80934 19.4686 9.09496 18.9341 9.51439 18.5145C14.1914 13.836 21.8054 13.836 26.4839 18.5145C27.0466 19.0772 27.3627 19.8405 27.3627 20.6363C27.3627 21.4321 27.0466 22.1953 26.4839 22.758C25.9212 23.3207 25.158 23.6369 24.3621 23.6369C23.5663 23.6369 22.8031 23.3207 22.2404 22.758C21.1142 21.6346 19.5884 21.0036 17.9976 21.0036C16.4069 21.0036 14.8811 21.6346 13.7549 22.758C13.4769 23.0368 13.1466 23.2579 12.7828 23.4085C12.419 23.5591 12.0291 23.6362 11.6354 23.6355Z" fill="black"/>
<path d="M46.89 7.5H44.4L41.655 14.895L38.91 7.5H36.36L40.605 18.075H42.645L46.89 7.5ZM56.505 18V15.945H50.805V13.74H55.755V11.685H50.805V9.555H56.43V7.5H48.51V18H56.505ZM67.7838 16.305L66.3138 14.82C65.9038 15.2 65.4888 15.5 65.0688 15.72C64.6588 15.94 64.1538 16.05 63.5538 16.05C63.1038 16.05 62.6888 15.965 62.3088 15.795C61.9388 15.615 61.6188 15.375 61.3488 15.075C61.0888 14.775 60.8838 14.425 60.7338 14.025C60.5838 13.625 60.5088 13.2 60.5088 12.75V12.72C60.5088 12.27 60.5838 11.85 60.7338 11.46C60.8838 11.06 61.0938 10.71 61.3638 10.41C61.6338 10.11 61.9538 9.875 62.3238 9.705C62.7038 9.535 63.1138 9.45 63.5538 9.45C64.0838 9.45 64.5588 9.555 64.9788 9.765C65.4088 9.975 65.8288 10.265 66.2388 10.635L67.7088 8.94C67.4688 8.7 67.2088 8.48 66.9288 8.28C66.6488 8.08 66.3438 7.91 66.0138 7.77C65.6838 7.63 65.3138 7.52 64.9038 7.44C64.5038 7.36 64.0588 7.32 63.5688 7.32C62.7588 7.32 62.0188 7.465 61.3488 7.755C60.6788 8.035 60.1038 8.425 59.6238 8.925C59.1438 9.415 58.7688 9.99 58.4988 10.65C58.2288 11.3 58.0938 12 58.0938 12.75V12.78C58.0938 13.53 58.2288 14.235 58.4988 14.895C58.7688 15.555 59.1438 16.13 59.6238 16.62C60.1038 17.1 60.6738 17.48 61.3338 17.76C61.9938 18.04 62.7088 18.18 63.4788 18.18C63.9888 18.18 64.4488 18.135 64.8588 18.045C65.2688 17.965 65.6438 17.845 65.9838 17.685C66.3338 17.515 66.6538 17.315 66.9438 17.085C67.2338 16.855 67.5138 16.595 67.7838 16.305ZM72.048 18V7.5H69.738V18H72.048ZM84.0021 18V7.5H81.7221V13.965L76.8021 7.5H74.6721V18H76.9521V11.325L82.0371 18H84.0021ZM97.2177 12.75V12.72C97.2177 11.97 97.0777 11.27 96.7977 10.62C96.5277 9.96 96.1427 9.39 95.6427 8.91C95.1527 8.42 94.5677 8.035 93.8877 7.755C93.2077 7.465 92.4627 7.32 91.6527 7.32C90.8427 7.32 90.0927 7.465 89.4027 7.755C88.7227 8.035 88.1327 8.425 87.6327 8.925C87.1427 9.415 86.7577 9.99 86.4777 10.65C86.1977 11.3 86.0577 12 86.0577 12.75V12.78C86.0577 13.53 86.1927 14.235 86.4627 14.895C86.7427 15.545 87.1277 16.115 87.6177 16.605C88.1177 17.085 88.7077 17.47 89.3877 17.76C90.0677 18.04 90.8127 18.18 91.6227 18.18C92.4327 18.18 93.1777 18.04 93.8577 17.76C94.5477 17.47 95.1377 17.08 95.6277 16.59C96.1277 16.09 96.5177 15.515 96.7977 14.865C97.0777 14.205 97.2177 13.5 97.2177 12.75ZM94.8027 12.78C94.8027 13.23 94.7227 13.655 94.5627 14.055C94.4127 14.445 94.1977 14.79 93.9177 15.09C93.6477 15.39 93.3177 15.625 92.9277 15.795C92.5377 15.965 92.1127 16.05 91.6527 16.05C91.1827 16.05 90.7527 15.965 90.3627 15.795C89.9827 15.615 89.6477 15.375 89.3577 15.075C89.0777 14.775 88.8577 14.425 88.6977 14.025C88.5477 13.625 88.4727 13.2 88.4727 12.75V12.72C88.4727 12.27 88.5477 11.85 88.6977 11.46C88.8577 11.06 89.0727 10.71 89.3427 10.41C89.6227 10.11 89.9527 9.875 90.3327 9.705C90.7227 9.535 91.1527 9.45 91.6227 9.45C92.0827 9.45 92.5077 9.54 92.8977 9.72C93.2877 9.89 93.6227 10.125 93.9027 10.425C94.1927 10.725 94.4127 11.075 94.5627 11.475C94.7227 11.875 94.8027 12.3 94.8027 12.75V12.78ZM46.935 26.75V26.72C46.935 25.98 46.8 25.295 46.53 24.665C46.26 24.025 45.875 23.47 45.375 23C44.885 22.53 44.295 22.165 43.605 21.905C42.925 21.635 42.175 21.5 41.355 21.5H37.26V32H41.355C42.175 32 42.925 31.865 43.605 31.595C44.295 31.325 44.885 30.955 45.375 30.485C45.875 30.015 46.26 29.46 46.53 28.82C46.8 28.18 46.935 27.49 46.935 26.75ZM44.52 26.78C44.52 27.25 44.44 27.675 44.28 28.055C44.13 28.435 43.915 28.765 43.635 29.045C43.365 29.325 43.035 29.54 42.645 29.69C42.255 29.84 41.825 29.915 41.355 29.915H39.57V23.585H41.355C41.825 23.585 42.255 23.665 42.645 23.825C43.035 23.975 43.365 24.19 43.635 24.47C43.915 24.75 44.13 25.085 44.28 25.475C44.44 25.865 44.52 26.29 44.52 26.75V26.78ZM51.4084 32V21.5H49.0984V32H51.4084ZM63.5725 30.515V25.955H59.0125V27.95H61.3375V29.45C60.7475 29.87 60.0225 30.08 59.1625 30.08C58.6925 30.08 58.2625 30 57.8725 29.84C57.4925 29.67 57.1575 29.435 56.8675 29.135C56.5875 28.835 56.3675 28.485 56.2075 28.085C56.0575 27.675 55.9825 27.23 55.9825 26.75V26.72C55.9825 26.27 56.0575 25.85 56.2075 25.46C56.3675 25.06 56.5825 24.715 56.8525 24.425C57.1325 24.125 57.4525 23.89 57.8125 23.72C58.1825 23.54 58.5775 23.45 58.9975 23.45C59.2975 23.45 59.5725 23.475 59.8225 23.525C60.0725 23.575 60.3025 23.645 60.5125 23.735C60.7325 23.825 60.9425 23.935 61.1425 24.065C61.3425 24.195 61.5425 24.345 61.7425 24.515L63.1975 22.76C62.9275 22.53 62.6475 22.325 62.3575 22.145C62.0675 21.965 61.7575 21.815 61.4275 21.695C61.0975 21.575 60.7375 21.485 60.3475 21.425C59.9675 21.355 59.5425 21.32 59.0725 21.32C58.2725 21.32 57.5375 21.465 56.8675 21.755C56.1975 22.035 55.6175 22.425 55.1275 22.925C54.6375 23.415 54.2525 23.99 53.9725 24.65C53.7025 25.3 53.5675 26 53.5675 26.75V26.78C53.5675 27.56 53.7025 28.28 53.9725 28.94C54.2425 29.6 54.6175 30.17 55.0975 30.65C55.5875 31.13 56.1675 31.505 56.8375 31.775C57.5175 32.045 58.2675 32.18 59.0875 32.18C60.0475 32.18 60.8975 32.02 61.6375 31.7C62.3875 31.37 63.0325 30.975 63.5725 30.515ZM68.2102 32V21.5H65.9002V32H68.2102ZM78.7842 23.63V21.5H70.0842V23.63H73.2792V32H75.5892V23.63H78.7842ZM90.7908 32L86.2908 21.425H84.1608L79.6608 32H82.0158L82.9758 29.645H87.4158L88.3758 32H90.7908ZM86.5908 27.605H83.8008L85.1958 24.2L86.5908 27.605ZM99.9564 32V29.9H94.7214V21.5H92.4114V32H99.9564Z" fill="black"/>
</svg>
